ffmpeg version N-55863-g9f38fac053-static https://johnvansickle.com/ffmpeg/  Copyright (c) 2000-2021 the FFmpeg developers
  built with gcc 8 (Debian 8.3.0-6)
  configuration: --enable-gpl --enable-version3 --enable-static --disable-debug --disable-ffplay --disable-indev=sndio --disable-outdev=sndio --cc=gcc --enable-fontconfig --enable-frei0r --enable-gnutls --enable-gmp --enable-libgme --enable-gray --enable-libaom --enable-libfribidi --enable-libass --enable-libvmaf --enable-libfreetype --enable-libmp3lame --enable-libopencore-amrnb --enable-libopencore-amrwb --enable-libopenjpeg --enable-librubberband --enable-libsoxr --enable-libspeex --enable-libsrt --enable-libvorbis --enable-libopus --enable-libtheora --enable-libvidstab --enable-libvo-amrwbenc --enable-libvpx --enable-libwebp --enable-libx264 --enable-libx265 --enable-libxml2 --enable-libdav1d --enable-libxvid --enable-libzvbi --enable-libzimg
  libavutil      56. 64.100 / 56. 64.100
  libavcodec     58.119.100 / 58.119.100
  libavformat    58. 65.101 / 58. 65.101
  libavdevice    58. 11.103 / 58. 11.103
  libavfilter     7.100.100 /  7.100.100
  libswscale      5.  8.100 /  5.  8.100
  libswresample   3.  8.100 /  3.  8.100
  libpostproc    55.  8.100 / 55.  8.100
Input #0, mov,mp4,m4a,3gp,3g2,mj2, from '/home/yiaapc5/public_html/f_data/data_userfiles/user_uploads/1134370236/v/1612625521.mp4':
  Metadata:
    major_brand     : mp42
    minor_version   : 0
    compatible_brands: isommp42
    creation_time   : 2021-01-31T12:55:43.000000Z
  Duration: 00:02:54.43, start: 0.000000, bitrate: 931 kb/s
    Stream #0:0(und): Video: h264 (Main) (avc1 / 0x31637661), yuv420p(tv, bt709), 1280x720 [SAR 1:1 DAR 16:9], 799 kb/s, 29.97 fps, 29.97 tbr, 30k tbn, 59.94 tbc (default)
    Metadata:
      creation_time   : 2021-01-31T12:55:43.000000Z
      handler_name    : ISO Media file produced by Google Inc. Created on: 01/31/2021.
      vendor_id       : [0][0][0][0]
    Stream #0:1(eng): Audio: aac (LC) (mp4a / 0x6134706D), 44100 Hz, stereo, fltp, 127 kb/s (default)
    Metadata:
      creation_time   : 2021-01-31T12:55:43.000000Z
      handler_name    : ISO Media file produced by Google Inc. Created on: 01/31/2021.
      vendor_id       : [0][0][0][0]
Codec AVOption rc_eq (Set rate control equation. When computing the expression, besides the standard functions defined in the section 'Expression Evaluation', the following functions are available: bits2qp(bits), qp2bits(qp). Also the following constants are available: iTex pTex tex mv fCode iCount mcVar var isI isP isB avgQP qComp avgIITex avgPITex avgPPTex avgBPTex avgTex.) specified for output file #0 (/home/yiaapc5/public_html/f_data/data_userfiles/user_media/1134370236/v/f6a67584cd7991185be0a20fa1644006.mob.nomob.mp4) has not been used for any stream. The most likely reason is either wrong type (e.g. a video option with no video streams) or that it is a private option of some encoder which was not actually used for any stream.
Stream mapping:
  Stream #0:0 -> #0:0 (h264 (native) -> h264 (libx264))
  Stream #0:1 -> #0:1 (aac (native) -> aac (native))
Press [q] to stop, [?] for help
[libx264 @ 0x75e68c0] Application has requested 32 threads. Using a thread count greater than 16 is not recommended.
[libx264 @ 0x75e68c0] using SAR=136/135
[libx264 @ 0x75e68c0] frame MB size (30x17) > level limit (396)
[libx264 @ 0x75e68c0] VBV bitrate (10000) > level limit (768)
[libx264 @ 0x75e68c0] VBV buffer (10000) > level limit (2000)
[libx264 @ 0x75e68c0] MB rate (15284) > level limit (11880)
[libx264 @ 0x75e68c0] using cpu capabilities: MMX2 SSE2Fast SSSE3 SSE4.2 AVX
[libx264 @ 0x75e68c0] profile Constrained Baseline, level 1.3, 4:2:0, 8-bit
[libx264 @ 0x75e68c0] 264 - core 161 r3040 35417dc - H.264/MPEG-4 AVC codec - Copyleft 2003-2021 - http://www.videolan.org/x264.html - options: cabac=0 ref=1 deblock=1:0:0 analyse=0x1:0 me=hex subme=1 psy=1 psy_rd=1.00:0.00 mixed_ref=0 me_range=16 chroma_me=1 trellis=0 8x8dct=0 cqm=0 deadzone=21,11 fast_pskip=1 chroma_qp_offset=0 threads=32 lookahead_threads=2 sliced_threads=0 nr=0 decimate=1 interlaced=0 bluray_compat=0 constrained_intra=0 bframes=0 weightp=0 keyint=300 keyint_min=25 scenecut=40 intra_refresh=0 rc_lookahead=30 rc=abr mbtree=1 bitrate=931 ratetol=1.0 qcomp=0.60 qpmin=10 qpmax=51 qpstep=4 vbv_maxrate=10000 vbv_bufsize=10000 nal_hrd=none filler=0 ip_ratio=1.41 aq=1:1.00
Output #0, mp4, to '/home/yiaapc5/public_html/f_data/data_userfiles/user_media/1134370236/v/f6a67584cd7991185be0a20fa1644006.mob.nomob.mp4':
  Metadata:
    major_brand     : mp42
    minor_version   : 0
    compatible_brands: isommp42
    encoder         : Lavf58.65.101
    Stream #0:0(und): Video: h264 (avc1 / 0x31637661), yuv420p(tv, bt709, progressive), 480x272 [SAR 136:135 DAR 16:9], q=2-31, 931 kb/s, 29.97 fps, 30k tbn (default)
    Metadata:
      creation_time   : 2021-01-31T12:55:43.000000Z
      handler_name    : ISO Media file produced by Google Inc. Created on: 01/31/2021.
      vendor_id       : [0][0][0][0]
      encoder         : Lavc58.119.100 libx264
    Side data:
      cpb: bitrate max/min/avg: 10000000/0/931000 buffer size: 10000000 vbv_delay: N/A
    Stream #0:1(eng): Audio: aac (LC) (mp4a / 0x6134706D), 44100 Hz, stereo, fltp, 127 kb/s (default)
    Metadata:
      creation_time   : 2021-01-31T12:55:43.000000Z
      handler_name    : ISO Media file produced by Google Inc. Created on: 01/31/2021.
      vendor_id       : [0][0][0][0]
      encoder         : Lavc58.119.100 aac
frame=    1 fps=0.0 q=0.0 size=       0kB time=00:00:00.41 bitrate=   0.9kbits/s speed=9.33x    frame=  189 fps=0.0 q=26.0 size=     512kB time=00:00:06.52 bitrate= 642.9kbits/s speed=  12x    frame=  404 fps=386 q=27.0 size=    1536kB time=00:00:13.76 bitrate= 913.9kbits/s speed=13.2x    frame=  621 fps=401 q=26.0 size=    2304kB time=00:00:20.92 bitrate= 902.2kbits/s speed=13.5x    frame=  823 fps=402 q=25.0 size=    3072kB time=00:00:27.42 bitrate= 917.7kbits/s speed=13.4x    frame= 1031 fps=405 q=27.0 size=    4096kB time=00:00:34.43 bitrate= 974.4kbits/s speed=13.5x    frame= 1235 fps=405 q=26.0 size=    4864kB time=00:00:41.35 bitrate= 963.5kbits/s speed=13.6x    frame= 1448 fps=408 q=25.0 size=    5632kB time=00:00:48.55 bitrate= 950.3kbits/s speed=13.7x    frame= 1657 fps=409 q=24.0 size=    6400kB time=00:00:55.28 bitrate= 948.3kbits/s speed=13.6x    frame= 1874 fps=412 q=19.0 size=    7168kB time=00:01:02.71 bitrate= 936.3kbits/s speed=13.8x    frame= 2089 fps=414 q=22.0 size=    8192kB time=00:01:10.05 bitrate= 958.0kbits/s speed=13.9x    frame= 2308 fps=416 q=22.0 size=    9216kB time=00:01:17.11 bitrate= 979.0kbits/s speed=13.9x    frame= 2520 fps=416 q=23.0 size=   10240kB time=00:01:24.19 bitrate= 996.3kbits/s speed=13.9x    frame= 2721 fps=415 q=24.0 size=   11264kB time=00:01:31.04 bitrate=1013.5kbits/s speed=13.9x    frame= 2916 fps=413 q=25.0 size=   12288kB time=00:01:37.54 bitrate=1032.0kbits/s speed=13.8x    frame= 3119 fps=413 q=23.0 size=   13312kB time=00:01:44.07 bitrate=1047.9kbits/s speed=13.8x    frame= 3315 fps=412 q=27.0 size=   14336kB time=00:01:50.61 bitrate=1061.7kbits/s speed=13.7x    frame= 3513 fps=411 q=26.0 size=   15104kB time=00:01:57.51 bitrate=1052.9kbits/s speed=13.7x    frame= 3724 fps=411 q=26.0 size=   15872kB time=00:02:04.48 bitrate=1044.5kbits/s speed=13.7x    frame= 3935 fps=412 q=26.0 size=   16896kB time=00:02:11.44 bitrate=1053.0kbits/s speed=13.8x    frame= 4143 fps=412 q=26.0 size=   17664kB time=00:02:18.41 bitrate=1045.4kbits/s speed=13.8x    frame= 4357 fps=413 q=24.0 size=   18176kB time=00:02:25.38 bitrate=1024.2kbits/s speed=13.8x    frame= 4566 fps=413 q=24.0 size=   19200kB time=00:02:32.36 bitrate=1032.3kbits/s speed=13.8x    frame= 4794 fps=415 q=21.0 size=   19456kB time=00:02:40.24 bitrate= 994.7kbits/s speed=13.9x    frame= 5043 fps=418 q=18.0 size=   19712kB time=00:02:48.60 bitrate= 957.8kbits/s speed=  14x    frame= 5227 fps=420 q=-1.0 Lsize=   19935kB time=00:02:54.40 bitrate= 936.4kbits/s speed=  14x    
video:17374kB audio:2415kB subtitle:0kB other streams:0kB global headers:0kB muxing overhead: 0.737887%
[libx264 @ 0x75e68c0] frame I:132   Avg QP:17.10  size: 12486
[libx264 @ 0x75e68c0] frame P:5095  Avg QP:18.42  size:  3168
[libx264 @ 0x75e68c0] mb I  I16..4: 13.9%  0.0% 86.1%
[libx264 @ 0x75e68c0] mb P  I16..4: 12.9%  0.0%  0.0%  P16..4: 52.9%  0.0%  0.0%  0.0%  0.0%    skip:34.2%
[libx264 @ 0x75e68c0] final ratefactor: 17.59
[libx264 @ 0x75e68c0] coded y,uvDC,uvAC intra: 52.4% 74.4% 43.8% inter: 23.0% 25.8% 4.4%
[libx264 @ 0x75e68c0] i16 v,h,dc,p: 24% 30% 22% 24%
[libx264 @ 0x75e68c0] i4 v,h,dc,ddl,ddr,vr,hd,vl,hu: 22% 25% 12%  8%  8%  5%  7%  5%  8%
[libx264 @ 0x75e68c0] i8c dc,h,v,p: 40% 28% 18% 14%
[libx264 @ 0x75e68c0] kb/s:816.02
[aac @ 0x766a980] Qavg: 7673.380
